<?xml version="1.0" encoding="utf-8"?>
<!-- Generator: Adobe Illustrator 23.0.3, SVG Export Plug-In . SVG Version: 6.00 Build 0)  -->
<svg version="1.1" id="Layer_1" xmlns="http://www.w3.org/2000/svg" xmlns:xlink="http://www.w3.org/1999/xlink" x="0px" y="0px"
	 viewBox="0 0 500 500" style="enable-background:new 0 0 500 500;" xml:space="preserve">
<style type="text/css">
	.st0{fill:#F17124;}
	.st1{fill:#0059A4;}
</style>
<path class="st0" d="M299.2,210c-1.3,0-2.4,1.1-2.4,2.4c0,1.3,1.1,2.4,2.4,2.4c1.3,0,2.4-1.1,2.4-2.4
	C301.6,211.1,300.5,210,299.2,210"/>
<path class="st0" d="M299.2,207.8c2.5,0,4.6,2.1,4.6,4.6s-2.1,4.6-4.6,4.6c-2.5,0-4.6-2-4.6-4.6S296.6,207.8,299.2,207.8
	 M299.2,206.5c-3.3,0-5.9,2.6-5.9,5.9c0,3.3,2.6,5.9,5.9,5.9c3.3,0,5.9-2.6,5.9-5.9C305.1,209.2,302.4,206.5,299.2,206.5"/>
<path class="st1" d="M101.6,206.5c11,0,20.6,5.4,25.8,13.9l-7.3,5.4c-4.3-6.7-10.5-10.4-18.4-10.4c-12.3,0-21.7,9.5-21.7,22.2
	c0,12.8,9.4,22.2,21.7,22.2c7.9,0,14.1-3.7,18.4-10.4l7.3,5.4c-5.1,8.5-14.6,13.9-25.8,13.9c-17.1,0.3-32-13.9-31.6-31.1
	C69.6,220.4,84.5,206.2,101.6,206.5"/>
<path class="st1" d="M143.5,248.4c1.2,7.3,6.9,11.8,14.6,11.8c4.6,0,9-1.7,13-5.3l4.6,6.6c-5.1,4.8-11,7.2-17.9,7.2
	c-13.7,0-24.1-10.1-24.1-23.3c-0.3-12.9,10.5-23.7,23.1-23.4c11.8,0,20.7,8.8,20.7,20.5c0,1.9-0.3,3.9-0.7,6H143.5z M168,241
	c-0.1-6.8-5.2-10.9-11.5-10.9c-6.3,0-11.4,4.3-12.9,10.9H168z"/>
<rect x="187.6" y="206.5" class="st1" width="9.6" height="62.2"/>
<path class="st1" d="M217,248.4c1.2,7.3,6.9,11.8,14.6,11.8c4.6,0,9-1.7,13-5.3l4.6,6.6c-5.1,4.8-11,7.2-17.9,7.2
	c-13.7,0-24.1-10.1-24.1-23.3c-0.3-12.9,10.5-23.7,23.1-23.4c11.8,0,20.7,8.8,20.7,20.5c0,1.9-0.3,3.9-0.7,6H217z M241.5,241
	c-0.1-6.8-5.2-10.9-11.5-10.9c-6.3,0-11.4,4.3-12.8,10.9H241.5z"/>
<path class="st1" d="M286.7,231.4h-2.9c-7.6,0-13.1,4.5-13.1,12.4v24.9h-9.6v-46.8h8.9v6.8c3.2-4,7.9-6.8,13-6.8
	c1.4,0,2.6,0.2,3.6,0.5L286.7,231.4z"/>
<rect x="294.4" y="221.9" class="st1" width="9.6" height="46.8"/>
<path class="st1" d="M343.5,267.7c-3,0.6-5.7,1-7.9,1c-10.3,0-16.5-5.1-16.5-15.6v-22.9h-7.3v-8.3h7.3v-15.4h9.7v15.4H342v8.3h-13.3
	v22.1c0,5.7,3,7.7,8.8,7.7c1.4,0,3.3-0.2,5.9-0.5V267.7z"/>
<path class="st1" d="M387.8,268.7h-8.9v-6c-3.3,3.9-8.2,6-14.3,6c-9.4,0-15.6-5.2-15.6-12.9c0-7.7,6.4-12.8,16.5-12.8h12.7V240
	c0-6.2-3.5-9.6-9.6-9.6c-5,0-8.7,2.2-12.4,6.7l-5.6-5.6c4.5-6.5,11.1-9.6,18.9-9.6c11,0,18.3,6.7,18.3,18.7V268.7z M378.1,249.9
	h-11.5c-5.1,0-7.9,1.8-7.9,5.5c0,3.7,3.2,5.9,7.8,5.9c6.5,0,11.6-4.5,11.6-10.6V249.9z"/>
<path class="st1" d="M401.5,254c3.9,4.1,7.8,6.4,12.6,6.4c4.1,0,7.2-1.7,7.2-5c0-2.6-1.9-3.7-6.3-5.6l-4.6-1.9
	c-7.9-3.3-11.7-6.7-11.7-13c0-8,6.7-12.9,15.8-12.9c6.5,0,11.6,2.3,15.5,6.9l-5.2,5.9c-2.8-2.9-6.6-4.6-10.5-4.6
	c-3.7,0-6.1,1.5-6.1,4.3c0,2.3,1.5,3.5,5.9,5.3l4.3,1.7c8.5,3.6,12.2,7.2,12.2,13.5c0,4.3-1.5,7.7-4.7,10.1
	c-3.2,2.4-7.1,3.6-11.8,3.6c-7.7,0-14-3.5-18-8.7L401.5,254z"/>
</svg>
